<?xml version="1.0" encoding="UTF-8"?>
<svg xmlns="http://www.w3.org/2000/svg" xmlns:xlink="http://www.w3.org/1999/xlink" width="20px" height="20px" viewBox="0 0 20 20" version="1.1" fill="#57BBDD">
<g id="surface1">
<path  d="M 8.238281 19.140625 C 8.796875 19.546875 9.441406 19.65625 9.988281 19.65625 C 10.625 19.65625 11.121094 19.503906 11.15625 19.496094 C 11.363281 19.425781 11.503906 19.238281 11.503906 19.015625 L 11.503906 15.53125 C 11.503906 12.785156 14.691406 11.847656 14.828125 11.808594 C 14.871094 11.796875 14.90625 11.785156 14.9375 11.765625 C 15.171875 12.238281 15.660156 12.5625 16.230469 12.5625 L 18.5625 12.5625 C 19.355469 12.5625 20 11.917969 20 11.128906 L 20 2.652344 C 20 1.859375 19.355469 1.214844 18.5625 1.214844 L 17.214844 1.214844 C 16.9375 1.214844 16.714844 1.4375 16.714844 1.71875 C 16.714844 1.996094 16.9375 2.207031 17.207031 2.207031 L 18.5625 2.207031 C 18.800781 2.207031 18.996094 2.40625 18.996094 2.644531 L 18.996094 11.128906 C 18.996094 11.371094 18.800781 11.5625 18.5625 11.5625 L 16.222656 11.5625 C 15.984375 11.5625 15.785156 11.371094 15.785156 11.128906 L 15.785156 3.128906 C 15.785156 1.59375 14.535156 0.34375 13 0.34375 L 4.46875 0.34375 C 2.574219 0.34375 1.371094 1.332031 1.15625 3.046875 L 0.0117188 10.265625 C 0.00390625 10.292969 0 10.316406 0 10.34375 L 0 10.433594 C 0 11.964844 1.25 13.21875 2.785156 13.21875 L 7.09375 13.21875 L 7.09375 16.324219 C 7.097656 17.640625 7.480469 18.582031 8.238281 19.140625 Z M 2.792969 12.21875 C 1.808594 12.21875 1.003906 11.421875 1.003906 10.433594 L 1.003906 10.390625 L 2.152344 3.1875 C 2.300781 1.964844 3.078125 1.34375 4.46875 1.34375 L 13 1.34375 C 13.984375 1.34375 14.785156 2.140625 14.785156 3.128906 L 14.785156 10.84375 C 14.714844 10.828125 14.636719 10.828125 14.558594 10.847656 C 14.390625 10.894531 10.511719 12.019531 10.511719 15.53125 L 10.511719 18.613281 C 10.082031 18.6875 9.359375 18.71875 8.832031 18.332031 C 8.34375 17.980469 8.097656 17.300781 8.097656 16.324219 L 8.097656 12.71875 C 8.097656 12.441406 7.875 12.21875 7.59375 12.21875 Z M 2.792969 12.21875 "/>
</g>
</svg>
