<?xml version="1.0" encoding="UTF-8"?>
<svg xmlns="http://www.w3.org/2000/svg" xmlns:xlink="http://www.w3.org/1999/xlink" width="20px" height="20px" viewBox="0 0 20 20" version="1.1">
<g id="surface1">
<path style=" stroke:none;fill-rule:nonzero;fill:rgb(0%,0%,0%);fill-opacity:1;" d="M 20 11.875 C 20 11.375 19.800781 10.910156 19.457031 10.5625 C 19.847656 10.136719 20.046875 9.566406 19.992188 8.972656 C 19.894531 7.914062 18.9375 7.082031 17.816406 7.082031 L 12.671875 7.082031 C 12.925781 6.308594 13.332031 4.890625 13.332031 3.75 C 13.332031 1.941406 11.796875 0.417969 10.832031 0.417969 C 9.96875 0.417969 9.347656 0.902344 9.324219 0.925781 C 9.222656 1.003906 9.167969 1.125 9.167969 1.25 L 9.167969 4.074219 L 6.765625 9.277344 L 6.667969 9.324219 L 6.667969 9.167969 C 6.667969 8.9375 6.480469 8.75 6.25 8.75 L 2.082031 8.75 C 0.933594 8.75 0 9.683594 0 10.832031 L 0 17.5 C 0 18.648438 0.933594 19.582031 2.082031 19.582031 L 4.582031 19.582031 C 5.484375 19.582031 6.253906 19.007812 6.546875 18.207031 C 7.238281 18.5625 8.171875 18.75 8.75 18.75 L 16.398438 18.75 C 17.308594 18.75 18.101562 18.136719 18.289062 17.296875 C 18.382812 16.859375 18.328125 16.421875 18.136719 16.042969 C 18.753906 15.734375 19.167969 15.097656 19.167969 14.375 C 19.167969 14.082031 19.097656 13.796875 18.972656 13.542969 C 19.585938 13.234375 20 12.597656 20 11.875 Z M 5.832031 17.5 C 5.832031 18.1875 5.273438 18.75 4.582031 18.75 L 2.082031 18.75 C 1.394531 18.75 0.832031 18.1875 0.832031 17.5 L 0.832031 10.832031 C 0.832031 10.144531 1.394531 9.582031 2.082031 9.582031 L 2.082031 9.585938 L 5.832031 9.585938 L 5.832031 10.003906 C 5.832031 10.007812 5.832031 10.007812 5.832031 10.011719 Z M 18.242188 12.90625 C 18.082031 12.921875 17.945312 13.03125 17.894531 13.1875 C 17.84375 13.339844 17.886719 13.511719 18.003906 13.621094 C 18.214844 13.820312 18.332031 14.089844 18.332031 14.375 C 18.332031 14.902344 17.9375 15.34375 17.410156 15.402344 C 17.25 15.421875 17.113281 15.53125 17.0625 15.6875 C 17.011719 15.839844 17.050781 16.007812 17.171875 16.121094 C 17.445312 16.378906 17.554688 16.742188 17.472656 17.113281 C 17.371094 17.578125 16.917969 17.917969 16.398438 17.917969 L 8.75 17.917969 C 8.128906 17.917969 7.132812 17.648438 6.667969 17.300781 L 6.667969 10.261719 L 7.265625 9.960938 C 7.351562 9.917969 7.417969 9.847656 7.460938 9.761719 L 9.960938 4.34375 C 9.984375 4.289062 9.996094 4.230469 9.996094 4.171875 L 9.996094 1.480469 C 10.171875 1.386719 10.472656 1.253906 10.832031 1.253906 C 11.289062 1.253906 12.496094 2.390625 12.496094 3.753906 C 12.496094 5.21875 11.699219 7.335938 11.691406 7.355469 C 11.644531 7.484375 11.660156 7.628906 11.738281 7.738281 C 11.816406 7.851562 11.945312 7.921875 12.082031 7.921875 L 17.816406 7.921875 C 18.511719 7.921875 19.101562 8.417969 19.160156 9.050781 C 19.203125 9.527344 18.976562 9.976562 18.566406 10.230469 C 18.4375 10.308594 18.363281 10.453125 18.371094 10.601562 C 18.375 10.75 18.460938 10.886719 18.59375 10.957031 C 18.945312 11.136719 19.164062 11.488281 19.164062 11.878906 C 19.164062 12.402344 18.765625 12.84375 18.242188 12.90625 Z M 18.242188 12.90625 "/>
</g>
</svg>
